<?xml version="1.0" encoding="UTF-8"?>
<svg id="Capa_1" xmlns="http://www.w3.org/2000/svg" version="1.1" viewBox="0 0 1024 768">
  <!-- Generator: Adobe Illustrator 30.2.0, SVG Export Plug-In . SVG Version: 2.1.1 Build 26)  -->
  <defs>
    <style>
      .st0 {
        fill: #fff;
      }
    </style>
  </defs>
  <g>
    <path class="st0" d="M185.03,562.92c6.29,0,11.46.93,15.51,2.79,4.05,1.86,7.65,4.03,10.79,6.5,1.91,1.43,3.36,1.6,4.36.5,1-1.09,1.69-3.69,2.07-7.79h3.29c-.19,3.62-.33,8.05-.43,13.29-.1,5.24-.14,12.15-.14,20.73h-3.29c-.57-4.29-1.19-7.89-1.86-10.79-.67-2.91-1.6-5.41-2.79-7.5-1.19-2.1-2.84-4.1-4.93-6-2.57-2.86-5.65-4.98-9.22-6.36-3.57-1.38-7.32-2.07-11.22-2.07-4.96,0-9.27,1.31-12.94,3.93-3.67,2.62-6.72,6.2-9.15,10.72-2.43,4.53-4.24,9.79-5.43,15.8-1.19,6-1.79,12.39-1.79,19.16s.64,13.42,1.93,19.37c1.29,5.96,3.19,11.15,5.72,15.58,2.52,4.43,5.67,7.89,9.44,10.36,3.76,2.48,8.12,3.72,13.08,3.72,3.52,0,7.15-.67,10.86-2,3.72-1.33,6.77-3.38,9.15-6.15,3.15-2.86,5.29-6.27,6.43-10.22,1.14-3.95,2.05-9.22,2.72-15.8h3.29c0,8.96.05,16.18.14,21.66.09,5.48.24,10.08.43,13.8h-3.29c-.38-4.1-1.02-6.67-1.93-7.72-.91-1.05-2.41-.9-4.5.43-3.53,2.48-7.27,4.65-11.22,6.5-3.96,1.86-9.03,2.79-15.23,2.79-9.72,0-18.25-2.05-25.59-6.15-7.34-4.1-13.03-10.01-17.08-17.73-4.05-7.72-6.08-17.01-6.08-27.88s2.1-20.01,6.29-28.02c4.19-8.01,9.96-14.25,17.3-18.73,7.34-4.48,15.77-6.72,25.3-6.72Z"/>
    <path class="st0" d="M339,564.92v2.86c-3.05.29-5.36.98-6.93,2.07-1.57,1.1-2.64,2.81-3.22,5.15-.57,2.34-.86,5.65-.86,9.94v39.6c0,6.39-.41,12.11-1.22,17.16-.81,5.05-2.36,9.44-4.65,13.15-2.38,4-5.93,7.22-10.65,9.65-4.72,2.43-10.46,3.64-17.23,3.64-4.57,0-9.08-.52-13.51-1.57s-8.32-3-11.65-5.86c-2.96-2.48-5.27-5.29-6.93-8.43-1.67-3.14-2.79-6.93-3.36-11.37s-.86-9.74-.86-15.94v-44.89c0-3.52-.26-6.12-.79-7.79-.52-1.67-1.57-2.81-3.15-3.43-1.57-.62-3.93-.98-7.08-1.07v-2.86c2.38.1,5.43.19,9.15.29,3.72.1,7.72.14,12.01.14,3.91,0,7.77-.05,11.58-.14,3.81-.09,6.96-.19,9.44-.29v2.86c-3.24.1-5.7.45-7.36,1.07-1.67.62-2.79,1.76-3.36,3.43-.57,1.67-.86,4.27-.86,7.79v51.75c0,4.77.31,9.08.93,12.94.62,3.86,1.67,7.17,3.15,9.94,1.48,2.77,3.57,4.86,6.29,6.29s6.17,2.14,10.36,2.14c6.96,0,12.34-1.57,16.15-4.72,3.81-3.15,6.48-7.53,8.01-13.15,1.52-5.62,2.29-12.01,2.29-19.16v-40.03c0-4.67-.33-8.24-1-10.72-.67-2.48-1.98-4.29-3.93-5.43-1.95-1.14-4.84-1.86-8.65-2.14v-2.86c1.81.1,4.17.19,7.08.29,2.91.1,5.6.14,8.08.14s4.74-.05,7.08-.14c2.33-.09,4.22-.19,5.65-.29Z"/>
    <path class="st0" d="M361.44,564.92c2.38.1,5.43.19,9.15.29,3.72.1,7.43.14,11.15.14,4.67,0,9.1-.05,13.29-.14,4.19-.09,7.15-.14,8.86-.14,8.58,0,15.65,1.03,21.23,3.07,5.58,2.05,9.74,4.93,12.51,8.65,2.76,3.72,4.15,8.1,4.15,13.15,0,3.15-.62,6.36-1.86,9.65-1.24,3.29-3.38,6.32-6.43,9.08-3.05,2.77-7.22,5.03-12.51,6.79-5.29,1.76-12.03,2.64-20.23,2.64h-13.72v-2.86h12.29c6,0,10.6-1.07,13.8-3.22,3.19-2.14,5.34-5,6.43-8.58,1.09-3.57,1.64-7.55,1.64-11.94,0-7.53-1.48-13.37-4.43-17.51-2.96-4.15-8.05-6.22-15.3-6.22-3.91,0-6.46.81-7.65,2.43-1.19,1.62-1.79,4.91-1.79,9.86v70.91c0,3.43.29,6,.86,7.72.57,1.71,1.64,2.86,3.22,3.43,1.57.57,3.88.95,6.93,1.14v2.86c-2.38-.19-5.43-.31-9.15-.36-3.72-.05-7.48-.07-11.29-.07-4.29,0-8.29.02-12.01.07-3.72.05-6.77.17-9.15.36v-2.86c3.15-.19,5.5-.57,7.08-1.14,1.57-.57,2.62-1.72,3.15-3.43.52-1.72.79-4.29.79-7.72v-70.91c0-3.52-.26-6.12-.79-7.79-.52-1.67-1.57-2.81-3.15-3.43-1.57-.62-3.93-.98-7.08-1.07v-2.86ZM387.03,615.67c4.48.19,8.22.41,11.22.64,3,.24,5.58.45,7.72.64,2.14.19,4.07.43,5.79.71,7.91.76,13.75,2.6,17.51,5.5,3.76,2.91,6.27,7.32,7.51,13.22l3.29,14.72c.86,3.91,1.79,6.7,2.79,8.36,1,1.67,2.45,2.46,4.36,2.36,1.33,0,2.48-.36,3.43-1.07.95-.71,1.91-1.69,2.86-2.93l2,1.72c-2.38,2.96-4.91,5.12-7.58,6.5-2.67,1.38-6.05,2.07-10.15,2.07-4.57,0-8.43-1.07-11.58-3.22-3.15-2.14-5.29-6.22-6.43-12.22l-2.72-14.3c-.76-4-1.64-7.53-2.65-10.58-1-3.05-2.36-5.43-4.07-7.15s-4.24-2.57-7.58-2.57h-15.44l-.29-2.43Z"/>
    <path class="st0" d="M517.84,564.49l34.74,89.63c1.43,3.43,2.98,5.79,4.65,7.08,1.67,1.29,3.22,1.98,4.65,2.07v2.86c-2.48-.19-5.46-.31-8.93-.36-3.48-.05-7.03-.07-10.65-.07-4.19,0-8.1.02-11.72.07-3.62.05-6.58.17-8.86.36v-2.86c4.86-.19,7.96-1.02,9.29-2.5,1.33-1.48,1.05-4.65-.86-9.51l-25.16-67.91,2.57-3.14-22.87,59.33c-1.81,4.77-2.91,8.67-3.29,11.72-.38,3.05-.14,5.43.71,7.15.86,1.72,2.29,2.93,4.29,3.65s4.48,1.12,7.43,1.21v2.86c-3.05-.19-6-.31-8.86-.36-2.86-.05-5.72-.07-8.58-.07-2.1,0-4.07.02-5.93.07-1.86.05-3.5.17-4.93.36v-2.86c2.1-.48,4.17-1.71,6.22-3.72,2.05-2,4.02-5.48,5.93-10.44l32.74-84.63c1.14.1,2.38.14,3.72.14s2.57-.05,3.72-.14ZM530.27,624.96v2.86h-42.6l1.43-2.86h41.17Z"/>
    <path class="st0" d="M655.94,564.92c-.38,4.38-.64,8.65-.79,12.79-.14,4.15-.21,7.32-.21,9.51s.05,4.24.14,6.15c.09,1.91.19,3.57.29,5h-3.29c-1.34-7.62-2.96-13.6-4.86-17.94-1.91-4.34-4.41-7.46-7.5-9.36-3.1-1.91-7.17-2.86-12.22-2.86h-4.58v81.49c0,3.91.36,6.82,1.07,8.72.71,1.91,2.17,3.17,4.36,3.79,2.19.62,5.38.98,9.58,1.07v2.86c-2.86-.19-6.58-.31-11.15-.36-4.58-.05-9.25-.07-14.01-.07s-9.6.02-13.94.07c-4.34.05-7.84.17-10.51.36v-2.86c4.1-.09,7.24-.45,9.43-1.07,2.19-.62,3.67-1.88,4.43-3.79.76-1.91,1.14-4.81,1.14-8.72v-81.49h-4.72c-4.96,0-9.01.95-12.15,2.86-3.15,1.91-5.67,5.03-7.58,9.36-1.91,4.34-3.48,10.32-4.72,17.94h-3.29c.19-1.43.31-3.1.36-5,.05-1.91.07-3.95.07-6.15s-.07-5.36-.21-9.51c-.14-4.15-.41-8.41-.79-12.79,4.19.1,8.81.19,13.87.29,5.05.1,10.1.14,15.15.14h27.59c5.05,0,10.1-.05,15.15-.14,5.05-.09,9.67-.19,13.87-.29Z"/>
    <path class="st0" d="M720.7,564.92v2.86c-3.05.1-5.36.45-6.93,1.07-1.57.62-2.65,1.76-3.22,3.43-.57,1.67-.86,4.27-.86,7.79v70.91c0,3.43.26,6,.79,7.72.52,1.71,1.59,2.86,3.22,3.43,1.62.57,3.95.95,7.01,1.14v2.86c-2.38-.19-5.43-.31-9.15-.36-3.72-.05-7.48-.07-11.29-.07-4.29,0-8.32.02-12.08.07-3.77.05-6.79.17-9.08.36v-2.86c3.15-.19,5.5-.57,7.08-1.14,1.57-.57,2.62-1.72,3.15-3.43.52-1.72.79-4.29.79-7.72v-70.91c0-3.52-.26-6.12-.79-7.79-.53-1.67-1.57-2.81-3.15-3.43-1.57-.62-3.93-.98-7.08-1.07v-2.86c2.29.1,5.31.19,9.08.29,3.76.1,7.79.14,12.08.14,3.81,0,7.58-.05,11.29-.14,3.72-.09,6.77-.19,9.15-.29Z"/>
    <path class="st0" d="M835.21,564.92v2.86c-1.91.67-4,2.17-6.29,4.5-2.29,2.34-4.34,5.98-6.15,10.94l-31.31,83.34c-.57,0-1.17-.02-1.79-.07-.62-.05-1.26-.07-1.93-.07s-1.31.02-1.93.07c-.62.05-1.21.07-1.79.07l-35.88-89.63c-1.43-3.53-2.98-5.91-4.65-7.15-1.67-1.24-3.22-1.91-4.65-2v-2.86c2.48.1,5.5.19,9.08.29,3.57.1,7.08.14,10.51.14,4.19,0,8.12-.05,11.79-.14,3.67-.09,6.6-.19,8.79-.29v2.86c-3.15.1-5.55.45-7.22,1.07-1.67.62-2.6,1.76-2.79,3.43-.19,1.67.33,4.17,1.57,7.5l26.3,67.62-2.72,3.29,21.44-57.18c2.38-6.38,3.57-11.44,3.57-15.15s-1.05-6.38-3.14-8c-2.1-1.62-5.1-2.48-9.01-2.57v-2.86c3.15.1,6.12.19,8.94.29,2.81.1,5.6.14,8.36.14,2.29,0,4.31-.05,6.08-.14,1.76-.09,3.36-.19,4.79-.29Z"/>
    <path class="st0" d="M888.67,564.49l34.74,89.63c1.43,3.43,2.98,5.79,4.65,7.08,1.67,1.29,3.22,1.98,4.65,2.07v2.86c-2.48-.19-5.46-.31-8.93-.36-3.48-.05-7.03-.07-10.65-.07-4.19,0-8.1.02-11.72.07-3.62.05-6.58.17-8.86.36v-2.86c4.86-.19,7.96-1.02,9.29-2.5,1.33-1.48,1.05-4.65-.86-9.51l-25.16-67.91,2.57-3.14-22.87,59.33c-1.81,4.77-2.91,8.67-3.29,11.72-.38,3.05-.14,5.43.71,7.15.86,1.72,2.29,2.93,4.29,3.65,2,.71,4.48,1.12,7.43,1.21v2.86c-3.05-.19-6-.31-8.86-.36-2.86-.05-5.72-.07-8.58-.07-2.1,0-4.08.02-5.93.07-1.86.05-3.5.17-4.93.36v-2.86c2.09-.48,4.17-1.71,6.22-3.72,2.05-2,4.03-5.48,5.93-10.44l32.74-84.63c1.14.1,2.38.14,3.72.14s2.57-.05,3.72-.14ZM901.11,624.96v2.86h-42.6l1.43-2.86h41.17Z"/>
  </g>
  <g>
    <path class="st0" d="M225.42,739.52c-2.7,0-5.19-.45-7.48-1.36-2.29-.9-4.27-2.18-5.94-3.82-1.67-1.64-2.98-3.57-3.92-5.79-.94-2.22-1.41-4.64-1.41-7.27s.47-5.05,1.41-7.27c.94-2.22,2.25-4.15,3.94-5.79,1.69-1.64,3.68-2.91,5.97-3.82,2.29-.9,4.78-1.36,7.48-1.36s5.04.44,7.32,1.31c2.29.87,4.22,2.18,5.79,3.92l-2.41,2.41c-1.47-1.5-3.09-2.59-4.87-3.25-1.78-.67-3.69-1-5.74-1-2.15,0-4.15.37-5.99,1.1s-3.45,1.78-4.81,3.12c-1.37,1.35-2.43,2.92-3.2,4.71-.77,1.79-1.15,3.76-1.15,5.92s.38,4.12,1.15,5.92c.77,1.79,1.83,3.36,3.2,4.71,1.37,1.35,2.97,2.39,4.81,3.12s3.84,1.1,5.99,1.1,3.96-.34,5.74-1.02c1.77-.68,3.4-1.77,4.87-3.28l2.41,2.41c-1.57,1.74-3.5,3.06-5.79,3.94-2.29.89-4.75,1.33-7.38,1.33Z"/>
    <path class="st0" d="M265.16,739.52c-2.7,0-5.2-.45-7.5-1.36-2.31-.9-4.3-2.18-5.99-3.84-1.69-1.66-3-3.58-3.94-5.79-.94-2.2-1.41-4.62-1.41-7.25s.47-5.05,1.41-7.25c.94-2.2,2.25-4.13,3.94-5.79,1.69-1.66,3.68-2.94,5.97-3.84,2.29-.9,4.8-1.36,7.53-1.36s5.19.45,7.48,1.36c2.29.91,4.28,2.18,5.97,3.82,1.69,1.64,3,3.57,3.94,5.79.94,2.22,1.41,4.64,1.41,7.27s-.47,5.05-1.41,7.27c-.94,2.22-2.25,4.15-3.94,5.79-1.69,1.64-3.68,2.91-5.97,3.82-2.29.91-4.78,1.36-7.48,1.36ZM265.16,736.14c2.15,0,4.14-.37,5.97-1.1,1.83-.73,3.41-1.78,4.76-3.12,1.35-1.35,2.4-2.92,3.15-4.71.75-1.79,1.13-3.76,1.13-5.92s-.38-4.12-1.13-5.92c-.75-1.79-1.8-3.36-3.15-4.71-1.35-1.35-2.94-2.39-4.76-3.12-1.83-.73-3.82-1.1-5.97-1.1s-4.15.37-5.99,1.1-3.44,1.78-4.79,3.12c-1.35,1.35-2.41,2.92-3.18,4.71-.77,1.79-1.15,3.76-1.15,5.92s.38,4.08,1.15,5.89c.77,1.81,1.83,3.39,3.18,4.74,1.35,1.35,2.95,2.39,4.79,3.12s3.84,1.1,5.99,1.1Z"/>
    <path class="st0" d="M307.47,739.52c-2.66,0-5.22-.44-7.66-1.31-2.44-.87-4.33-1.99-5.66-3.35l1.49-2.92c1.26,1.23,2.96,2.26,5.1,3.1,2.13.84,4.38,1.25,6.73,1.25s4.09-.28,5.51-.85c1.42-.56,2.46-1.32,3.12-2.28.67-.96,1-2.01,1-3.17,0-1.4-.4-2.53-1.2-3.38-.8-.85-1.85-1.53-3.15-2.02-1.3-.49-2.73-.93-4.3-1.31-1.57-.38-3.14-.78-4.71-1.2-1.57-.43-3.01-1-4.33-1.72-1.31-.72-2.37-1.66-3.18-2.84-.8-1.18-1.2-2.72-1.2-4.64,0-1.77.47-3.41,1.41-4.89.94-1.49,2.38-2.68,4.33-3.59,1.95-.9,4.44-1.36,7.48-1.36,2.01,0,4.01.28,5.99.85,1.98.56,3.69,1.34,5.12,2.33l-1.28,3.02c-1.54-1.02-3.17-1.77-4.89-2.25-1.72-.48-3.39-.72-4.99-.72-2.15,0-3.93.29-5.33.87-1.4.58-2.43,1.36-3.1,2.33-.67.97-1,2.08-1,3.3,0,1.4.4,2.53,1.2,3.38.8.85,1.86,1.52,3.18,2,1.31.48,2.76.91,4.33,1.28,1.57.38,3.13.79,4.69,1.23,1.55.44,2.99,1.02,4.3,1.72,1.31.7,2.37,1.63,3.18,2.79.8,1.16,1.2,2.68,1.2,4.56,0,1.74-.48,3.36-1.43,4.84-.96,1.49-2.42,2.68-4.38,3.58-1.96.91-4.48,1.36-7.55,1.36Z"/>
    <path class="st0" d="M334.2,739.21v-35.85h3.12l16.39,27.96h-1.64l16.24-27.96h3.12v35.85h-3.64v-30.17h.87l-14.96,25.61h-1.79l-15.06-25.61h.97v30.17h-3.64Z"/>
    <path class="st0" d="M388.24,739.21v-35.85h24.58v3.28h-20.79v29.3h21.56v3.28h-25.35ZM391.62,722.62v-3.23h18.95v3.23h-18.95ZM397.2,700.44l7.02-6.35h4.87l-8.3,6.35h-3.59Z"/>
    <path class="st0" d="M434.59,739.21v-32.57h-12.6v-3.28h28.99v3.28h-12.6v32.57h-3.79Z"/>
    <path class="st0" d="M462.14,739.21v-35.85h3.79v35.85h-3.79Z"/>
    <path class="st0" d="M498.3,739.52c-2.7,0-5.19-.45-7.48-1.36-2.29-.9-4.27-2.18-5.94-3.82-1.67-1.64-2.98-3.57-3.92-5.79-.94-2.22-1.41-4.64-1.41-7.27s.47-5.05,1.41-7.27c.94-2.22,2.25-4.15,3.94-5.79,1.69-1.64,3.68-2.91,5.97-3.82,2.29-.9,4.78-1.36,7.48-1.36s5.04.44,7.32,1.31c2.29.87,4.22,2.18,5.79,3.92l-2.41,2.41c-1.47-1.5-3.09-2.59-4.87-3.25-1.78-.67-3.69-1-5.74-1-2.15,0-4.15.37-5.99,1.1s-3.45,1.78-4.81,3.12c-1.37,1.35-2.43,2.92-3.2,4.71-.77,1.79-1.15,3.76-1.15,5.92s.38,4.12,1.15,5.92c.77,1.79,1.83,3.36,3.2,4.71,1.37,1.35,2.97,2.39,4.81,3.12s3.84,1.1,5.99,1.1,3.96-.34,5.74-1.02c1.77-.68,3.4-1.77,4.87-3.28l2.41,2.41c-1.57,1.74-3.5,3.06-5.79,3.94-2.29.89-4.75,1.33-7.38,1.33Z"/>
    <path class="st0" d="M517.51,739.21l16.39-35.85h3.74l16.39,35.85h-4l-15.06-33.65h1.54l-15.06,33.65h-3.94ZM523.96,729.63l1.13-3.07h20.85l1.13,3.07h-23.1Z"/>
    <path class="st0" d="M583.63,739.21v-35.85h3.12l24.74,31.14h-1.64v-31.14h3.74v35.85h-3.12l-24.69-31.14h1.64v31.14h-3.79Z"/>
    <path class="st0" d="M624.66,739.21l16.39-35.85h3.74l16.39,35.85h-4l-15.06-33.65h1.54l-15.06,33.65h-3.94ZM631.11,729.63l1.13-3.07h20.85l1.13,3.07h-23.1Z"/>
    <path class="st0" d="M677.41,739.21v-32.57h-12.6v-3.28h28.99v3.28h-12.6v32.57h-3.79Z"/>
    <path class="st0" d="M718.69,739.52c-4.58,0-8.18-1.31-10.81-3.94-2.63-2.63-3.94-6.52-3.94-11.68v-20.54h3.79v20.38c0,4.23.96,7.36,2.87,9.37s4.61,3.02,8.09,3.02,6.23-1.01,8.14-3.02,2.87-5.14,2.87-9.37v-20.38h3.69v20.54c0,5.16-1.31,9.05-3.92,11.68-2.61,2.63-6.21,3.94-10.78,3.94Z"/>
    <path class="st0" d="M749.94,739.21v-35.85h13.42c4.54,0,8.12,1.08,10.73,3.25,2.61,2.17,3.92,5.18,3.92,9.04,0,2.53-.59,4.7-1.77,6.53-1.18,1.83-2.86,3.23-5.05,4.2-2.19.97-4.8,1.46-7.84,1.46h-11.32l1.69-1.74v13.11h-3.79ZM753.73,726.41l-1.69-1.79h11.22c3.58,0,6.31-.79,8.17-2.36,1.86-1.57,2.79-3.77,2.79-6.61s-.93-5.09-2.79-6.66c-1.86-1.57-4.58-2.36-8.17-2.36h-11.22l1.69-1.79v21.56ZM774.42,739.21l-9.22-13.01h4.1l9.27,13.01h-4.15Z"/>
    <path class="st0" d="M786.35,739.21l16.39-35.85h3.74l16.39,35.85h-4l-15.06-33.65h1.54l-15.06,33.65h-3.94ZM792.8,729.63l1.13-3.07h20.85l1.13,3.07h-23.1Z"/>
    <path class="st0" d="M833.93,739.21v-35.85h3.79v32.57h20.08v3.28h-23.87Z"/>
  </g>
  <path class="st0" d="M532.32,119.22c5.3,37.77,10.53,69.18,16.43,98.65,1.8,9,9.75,15.54,18.89,15.54,3.45,0,6.84-.94,9.81-2.7,6.67-3.97,12.97-8.06,18.62-11.9l-8.05,9.86c-4.28,5.25-5.52,12.47-3.22,18.86,2.31,6.43,7.67,11.07,14.34,12.4,22.57,4.5,43.75,7.4,66.17,10.46l2.21.3,18.27,2.5-45.49,6.27c-.13.02-.26.04-.39.06l-41.09,6.76c-6.78,1.12-12.49,5.83-14.91,12.3-2.43,6.51-1.19,13.87,3.25,19.21l8.34,10.04-15.94-11.17c-3.24-2.27-7.05-3.48-10.99-3.48-8.71,0-16.37,5.9-18.61,14.36-2.11,7.94-3.57,15.47-5.02,23.13-4.62,24.55-8.77,48.84-12.53,72.39l-.35-2.39c-.02-.11-.03-.21-.05-.31l-12.54-74.08c-1.01-6.02-2.04-11.95-3.59-18.42-2.09-8.73-9.8-14.82-18.74-14.82-3.69,0-7.28,1.06-10.39,3.07-5.73,3.7-11.38,7.5-16.96,11.34l7.75-9.47c4.34-5.3,5.56-12.33,3.27-18.8-2.27-6.42-7.58-11.07-14.21-12.45-18.61-3.86-36.28-6.28-55-8.84l-2.94-.4-30.51-4.18,64.41-9.13.76-.11c7.94-1.12,15.43-2.19,23.21-3.68,6.72-1.29,12.12-5.92,14.47-12.38,2.32-6.41,1.09-13.67-3.22-18.93l-7.96-9.73,4.14,2.95c.08.06.16.11.24.17l12.35,8.44c3.21,2.19,6.95,3.35,10.82,3.35,8.82,0,16.5-6,18.67-14.58,1.56-6.17,2.59-12.12,3.33-16.63l5.84-35.89c.01-.07.02-.14.03-.21l7.09-47.72M532.43,5.28l-12.07,90.83-10.18,68.6-5.84,35.89c-.85,5.24-1.79,10.29-3.06,15.35-.48,1.91-2.15,3.08-3.9,3.08-.76,0-1.53-.22-2.22-.69l-12.35-8.44-96.28-68.59,37.21,45.76,42.27,51.64c1.98,2.42.69,6.14-2.33,6.72-7.66,1.47-15.28,2.54-23.24,3.67l-75.89,10.76-97.96,13.54,140.02,19.18c19.23,2.63,37.84,5.11,56.91,9.06,2.98.62,4.2,4.31,2.25,6.7l-17.55,21.43-39.97,48.36c-7.57,9.15-15,17.69-21.7,27.46l58.49-41.92c16.64-11.93,32.84-23.69,49.99-34.78.67-.43,1.4-.63,2.12-.63,1.77,0,3.47,1.21,3.93,3.14,1.41,5.89,2.39,11.47,3.38,17.39l12.54,74.11,15.5,104.88c7.97-58.51,16.49-116.24,27.41-174.29,1.42-7.57,2.81-14.66,4.77-22.04.5-1.89,2.16-3.04,3.89-3.04.77,0,1.55.23,2.26.72l74.88,52.48,32.54,23.74c.26.16.43.24.53.24,1.25,0-8.4-11.47-8.62-11.74l-71.29-85.78c-2.04-2.45-.68-6.24,2.42-6.75l41.09-6.76,68.04-9.38,89.25-11.77-130.09-17.79c-22.57-3.09-44.6-6.05-67.47-10.61-3-.6-4.26-4.3-2.3-6.7l61.42-75.26c6.09-7.47,11.82-13.95,17.86-22.3l-79.75,57.19c-9.79,7.02-19.34,13.55-29.69,19.7-.65.39-1.35.56-2.03.56-1.83,0-3.56-1.28-3.96-3.3-6.73-33.66-11.93-66.6-16.62-100.23l-9.55-68.5-5.08-40.88h0ZM679.1,140.73h0,0Z"/>
</svg>