<?xml version="1.0" encoding="UTF-8"?>
<svg id="Capa_1" xmlns="http://www.w3.org/2000/svg" version="1.1" viewBox="0 0 846.3 768">
  <!-- Generator: Adobe Illustrator 30.2.0, SVG Export Plug-In . SVG Version: 2.1.1 Build 26)  -->
  <defs>
    <style>
      .st0 {
        fill: #fff;
      }
    </style>
  </defs>
  <path class="st0" d="M422.23,216.05c6.04,43.06,12.01,78.87,18.73,112.48,2.05,10.27,11.11,17.72,21.54,17.72,3.93,0,7.8-1.07,11.19-3.08,7.61-4.53,14.78-9.19,21.23-13.57l-9.18,11.24c-4.88,5.98-6.29,14.22-3.67,21.5,2.63,7.34,8.74,12.62,16.35,14.14,25.74,5.13,49.88,8.43,75.44,11.93l2.52.35,20.83,2.85-51.86,7.15c-.15.02-.3.04-.45.07l-46.85,7.7c-7.73,1.27-14.25,6.64-17,14.02-2.77,7.43-1.35,15.82,3.71,21.9l9.51,11.44-18.18-12.74c-3.7-2.59-8.03-3.96-12.53-3.96-9.93,0-18.66,6.73-21.22,16.37-2.4,9.05-4.08,17.64-5.72,26.37-5.27,27.99-10,55.68-14.29,82.53l-.4-2.73c-.02-.12-.04-.24-.06-.36l-14.3-84.47c-1.15-6.86-2.33-13.63-4.1-21-2.39-9.95-11.17-16.9-21.36-16.9-4.2,0-8.3,1.21-11.84,3.5-6.53,4.22-12.98,8.55-19.34,12.93l8.84-10.79c4.95-6.04,6.34-14.06,3.73-21.44-2.59-7.32-8.64-12.62-16.2-14.19-21.21-4.4-41.37-7.16-62.7-10.08l-3.35-.46-34.79-4.76,73.44-10.41.86-.12c9.05-1.28,17.6-2.49,26.47-4.2,7.66-1.47,13.82-6.75,16.49-14.12,2.65-7.31,1.24-15.58-3.67-21.59l-9.08-11.09,4.72,3.36c.09.06.18.13.27.19l14.08,9.62c3.66,2.5,7.92,3.82,12.33,3.82,10.06,0,18.81-6.84,21.28-16.63,1.77-7.03,2.96-13.82,3.79-18.96l6.66-40.92c.01-.08.03-.16.04-.24l8.08-54.41M422.35,86.15l-13.76,103.56-11.61,78.21-6.66,40.92c-.97,5.98-2.04,11.73-3.49,17.5-.55,2.18-2.46,3.51-4.45,3.51-.86,0-1.74-.25-2.53-.79l-14.08-9.62-109.78-78.2,42.42,52.18,48.2,58.88c2.25,2.75.78,7-2.66,7.66-8.73,1.68-17.42,2.89-26.5,4.18l-86.52,12.26-111.69,15.43,159.64,21.86c21.92,3,43.14,5.82,64.88,10.33,3.39.7,4.79,4.91,2.57,7.63l-20.01,24.44-45.57,55.14c-8.63,10.44-17.1,20.16-24.74,31.31l66.69-47.79c18.97-13.6,37.44-27.01,56.99-39.65.76-.49,1.6-.72,2.42-.72,2.02,0,3.95,1.38,4.48,3.58,1.61,6.71,2.73,13.07,3.86,19.82l14.3,84.49,17.67,119.58c9.08-66.71,18.8-132.53,31.25-198.71,1.62-8.63,3.2-16.72,5.44-25.13.57-2.16,2.46-3.47,4.44-3.47.88,0,1.77.26,2.57.82l85.38,59.83,37.1,27.06c.29.19.49.27.61.27,1.43,0-9.57-13.08-9.83-13.39l-81.28-97.8c-2.32-2.79-.77-7.12,2.76-7.7l46.85-7.7,77.57-10.69,101.76-13.42-148.32-20.29c-25.73-3.52-50.85-6.9-76.92-12.1-3.41-.68-4.85-4.9-2.62-7.64l70.03-85.81c6.95-8.51,13.48-15.9,20.36-25.43l-90.92,65.2c-11.16,8-22.04,15.44-33.85,22.46-.74.44-1.53.64-2.31.64-2.09,0-4.06-1.46-4.52-3.76-7.67-38.38-13.6-75.93-18.95-114.27l-10.89-78.1-5.79-46.61h0ZM589.58,240.58h0,0Z"/>
</svg>