<?xml version="1.0" encoding="UTF-8"?>
<svg id="Capa_1" xmlns="http://www.w3.org/2000/svg" version="1.1" viewBox="0 0 634.58 621.96">
  <!-- Generator: Adobe Illustrator 30.2.0, SVG Export Plug-In . SVG Version: 2.1.1 Build 26)  -->
  <defs>
    <style>
      .st0 {
        fill: #f5b100;
      }
    </style>
  </defs>
  <path class="st0" d="M301.48,464.21l-12.29-72.62c-.97-5.8-1.93-11.27-3.31-17.04-.64-2.67-3.67-3.93-5.93-2.46-16.81,10.86-32.68,22.39-48.98,34.08l-57.32,41.08c6.57-9.58,13.85-17.94,21.27-26.91l39.17-47.39,17.2-21c1.91-2.34.71-5.96-2.21-6.56-18.69-3.88-36.93-6.3-55.77-8.88l-137.22-18.79,96-13.27,74.37-10.54c7.8-1.11,15.27-2.15,22.77-3.59,2.96-.57,4.22-4.22,2.29-6.58l-41.43-50.61-36.46-44.85,94.35,67.21,12.1,8.27c2.25,1.54,5.32.35,6-2.34,1.25-4.95,2.17-9.9,3-15.04l5.72-35.17,9.98-67.22,11.83-89.01,4.98,40.06,9.36,67.13c4.59,32.95,9.69,65.23,16.29,98.22.54,2.72,3.53,4.07,5.87,2.68,10.14-6.03,19.5-12.43,29.09-19.31l78.15-56.04c-5.92,8.19-11.53,14.54-17.5,21.86l-60.19,73.75c-1.92,2.35-.68,5.98,2.25,6.57,22.41,4.47,44,7.37,66.12,10.4l127.48,17.44-87.46,11.53-66.68,9.19-40.27,6.62c-3.03.5-4.37,4.21-2.37,6.61l69.86,84.06c.24.28,11.27,13.4,7.93,11.27l-31.89-23.26-73.38-51.42c-2.23-1.56-5.31-.4-6.02,2.27-1.92,7.23-3.28,14.18-4.67,21.6-10.7,56.89-19.05,113.46-26.86,170.8l-15.19-102.78Z"/>
</svg>